<svg xmlns="http://www.w3.org/2000/svg" width="661" height="733" viewBox="0 0 661 733" shape-rendering="geometricPrecision" text-rendering="geometricPrecision" image-rendering="optimizeQuality" fill-rule="evenodd" clip-rule="evenodd">
  <style>
    :root { color-scheme: light dark; }
    /* Light: 反転なし。Dark: 全体を反転（黒→白）で斑点も含めて反転 */
    svg { filter: invert(0); }
    @media (prefers-color-scheme: dark) {
      svg { filter: invert(1); }
    }
  </style>
  <g>
    <path fill="#030303" d="M 221.5,4.5 C 261.881,1.33301 297.547,12.4997 328.5,38C 339.669,48.8331 348.502,61.3331 355,75.5C 360.08,93.5592 365.413,111.559 371,129.5C 376.532,144.078 384.699,156.911 395.5,168C 457.57,218.43 508.736,277.93 549,346.5C 583.715,407.766 612.882,471.599 636.5,538C 636.266,539.732 635.266,540.566 633.5,540.5C 630.649,539.713 627.983,538.88 625.5,538C 634.731,554.963 643.565,572.13 652,589.5C 652.313,596.63 648.813,599.463 641.5,598C 609.998,585.943 578.332,574.277 546.5,563C 513.268,554.134 479.602,552.134 445.5,557C 445.542,561.299 445.375,565.799 445,570.5C 444.489,572.878 443.822,575.212 443,577.5C 422.079,616.342 401.412,655.342 381,694.5C 380.333,697.167 380.333,699.833 381,702.5C 382.067,703.191 383.234,703.691 384.5,704C 394.357,704.771 404.191,704.604 414,703.5C 425.476,705.808 431.309,712.808 431.5,724.5C 345.167,724.5 258.833,724.5 172.5,724.5C 173.108,715.724 177.441,709.558 185.5,706C 204.448,704.717 223.448,704.051 242.5,704C 251.581,703.757 259.081,700.257 265,693.5C 268.252,688.666 271.252,683.666 274,678.5C 290.985,644.697 307.818,610.864 324.5,577C 320.089,565.346 314.756,554.18 308.5,543.5C 244.632,520.439 193.466,481.106 155,425.5C 110.666,356.152 100.999,282.152 126,203.5C 130.948,180.508 127.615,158.841 116,138.5C 112.238,134.87 107.738,132.703 102.5,132C 71.1268,129.439 40.4601,123.439 10.5,114C 4.34165,111.204 4.00832,107.871 9.5,104C 22.7902,96.6919 36.7902,91.0252 51.5,87C 72.5679,81.0637 93.9012,76.7303 115.5,74C 117.479,77.4717 119.812,80.6383 122.5,83.5C 134.603,77.7815 146.937,72.6148 159.5,68C 180.53,62.8266 201.864,61.1599 223.5,63C 248.301,65.2268 272.634,69.8935 296.5,77C 315.205,82.9047 333.872,88.5714 352.5,94C 340.754,79.9294 326.421,69.2627 309.5,62C 256.381,39.4121 202.048,35.7454 146.5,51C 136.928,54.6229 127.928,58.9562 119.5,64C 123.128,56.0351 127.962,48.8684 134,42.5C 158.829,19.8355 187.995,7.16881 221.5,4.5 Z M 191.5,78.5 C 206.521,76.2512 216.354,82.2512 221,96.5C 222.304,113.203 214.638,122.869 198,125.5C 181.425,122.369 174.092,112.369 176,95.5C 178.283,87.0562 183.45,81.3895 191.5,78.5 Z M 127.5,136.5 C 148.492,144.551 170.158,150.051 192.5,153C 202.833,153.667 213.167,153.667 223.5,153C 242.605,150.271 261.772,148.104 281,146.5C 302.709,147.041 323.542,151.541 343.5,160C 284.137,184.884 261.304,229.051 275,292.5C 279.387,309.605 286.721,325.272 297,339.5C 307.046,352.424 317.213,365.258 327.5,378C 282.758,423.552 230.091,435.886 169.5,415C 165.563,413.356 161.73,411.523 158,409.5C 129.503,364.51 118.17,315.51 124,262.5C 127.051,240.58 131.384,218.913 137,197.5C 141.172,175.873 138.005,155.54 127.5,136.5 Z M 352.5,553.5 C 368.989,556.888 385.655,558.888 402.5,559.5C 405.36,566.224 408.527,572.891 412,579.5C 412.667,580.833 412.667,582.167 412,583.5C 394,619.5 376,655.5 358,691.5C 352.319,698.924 344.819,703.091 335.5,704C 320.5,704.667 305.5,704.667 290.5,704C 289.376,703.751 288.376,703.251 287.5,702.5C 288.332,699.839 289.166,697.172 290,694.5C 310.598,655.581 331.598,616.914 353,578.5C 356.115,570.122 355.948,561.789 352.5,553.5 Z"/>
  </g>
  <g>
    <path fill="#070707" d="M 194.5,86.5 C 210.489,87.4739 215.656,95.4739 210,110.5C 202.654,118.126 194.987,118.46 187,111.5C 181.293,100.655 183.793,92.3215 194.5,86.5 Z"/>
  </g>
</svg>
